<?xml version="1.0" encoding="utf-8"?>
<!-- Generator: Adobe Illustrator 27.5.0, SVG Export Plug-In . SVG Version: 6.00 Build 0)  -->
<svg version="1.1" id="Layer_1" xmlns="http://www.w3.org/2000/svg" xmlns:xlink="http://www.w3.org/1999/xlink" x="0px" y="0px"
	 viewBox="0 0 228 147.333" style="enable-background:new 0 0 228 147.333;" xml:space="preserve">
<g>
	<path style="fill:#4D5052;" d="M22.951,121.285c0,0-1.162-5.612-3.484-6.677c-2.322-1.065-7.548-1.742-7.548-1.742
		s-0.968,0.29-0.581,2.032l0.387,1.838c0,0,0.098,0.775,1.258,1.356c1.162,0.58,9.291,5.031,9.291,5.031
		S23.241,123.318,22.951,121.285z"/>
	<path style="fill:#686B6D;" d="M21.188,120.216c0,0-0.95-4.587-2.848-5.457c-1.898-0.87-6.169-1.424-6.169-1.424
		s-0.79,0.237-0.474,1.661l0.315,1.502c0,0,0.079,0.633,1.028,1.107c0.949,0.476,7.592,4.111,7.592,4.111
		S21.424,121.877,21.188,120.216z"/>
	<path style="fill:#E8E6D6;" d="M215.265,97.203c-0.075-0.944-0.152-1.888-0.249-2.822c-0.291-2.842-0.52-5.114-2.392-7.646
		c-3.997-3.101-8.072-5.849-12.086-8.287c-3.544-5.667-39.452-57.767-55.212-63.52c-0.543-0.198-22.354-4.526-28.871-5.479
		c-9.077-1.328-18.209-1.884-27.316-2.417c-9.17-0.537-18.354-0.503-27.529-0.559c-6.702-0.041-10.07,0.238-15.223,0.856
		c-8.801,1.054-8.848,4.594-19.316,21.441C16.99,44.993,14.379,55.828,14.379,55.828l0.042,0.008L10.94,95.499l-3.059,9.138
		l3.129,14.771l16.49,8.561c0,0,180.717,0.246,180.867-0.03c4.788-8.782,2.42-4.951,6.303-11.527
		C217.317,111.93,215.907,101.791,215.265,97.203z"/>
	<path style="fill:#006DB8;" d="M21.54,99.211c7.845-11.161,19.963-15.905,33.429-14.748c15.6,1.34,30.135,9.365,40.007,21.528
		c5.279,6.505,8.064,14.138,10.072,22.058c7.589,0.005,15.299,0.01,22.914,0.014c-0.31-5.164-1.447-10.248-3.731-14.938
		c-9.645-19.809-30.559-26.173-50.14-31.875c-5.118-1.491-10.245-3.024-15.198-5.008c-3.482-1.394-7.151-3.084-9.557-6.098
		c-4.499-5.635-4.968-12.831-2.546-19.517C52.544,34.742,66.967,23.2,81.903,16.326c7.423-3.416,15.116-6.022,22.937-8.207
		c-5.232-0.463-10.472-0.781-15.702-1.088c-9.17-0.537-18.354-0.503-27.529-0.559c-6.702-0.041-10.07,0.238-15.223,0.856
		c-8.801,1.054-8.848,4.594-19.316,21.441C16.99,44.993,14.379,55.828,14.379,55.828l0.042,0.008L10.94,95.499l-3.059,9.138
		l3.129,14.771l2.392,1.241C14.653,112.968,17.138,105.474,21.54,99.211z"/>
	<path style="opacity:0.3;fill:#E8E6D6;" d="M31.374,95.355H10.952l-0.013,0.144l-2.967,8.862h17.221
		C26.688,100.989,28.734,97.931,31.374,95.355z"/>
	<path style="opacity:0.3;fill:#E8E6D6;" d="M81.406,95.355c2.457,2.383,4.269,5.314,5.851,8.471
		c0.088,0.177,0.176,0.357,0.266,0.535h57.228c0.425-1.451,0.961-2.867,1.583-4.207c0.77-1.661,1.691-3.33,2.839-4.799H81.406z"/>
	<path style="opacity:0.6;fill:#BABAAE;" d="M11.002,119.37l0.008,0.037l16.49,8.561c0,0,180.717,0.246,180.867-0.03
		c3.791-6.953,3.098-6.003,4.571-8.568H11.002z"/>
	<g>
		<g>
			<path style="fill:#ADAFB2;" d="M200.761,118.804c0-12.185-10.391-22.062-23.204-22.062c-12.816,0-23.207,9.877-23.207,22.062
				c0,3.276,0.754,6.385,2.1,9.181h-4.242c-1.665-3.58-2.598-7.569-2.598-11.779c0-15.434,12.512-27.947,27.947-27.947
				c15.432,0,27.945,12.514,27.945,27.947c0,4.21-0.932,8.199-2.6,11.779h-4.24C200.009,125.188,200.761,122.08,200.761,118.804z"/>
			<path style="opacity:0.5;fill:#535658;" d="M177.557,88.258c-3.48,0-6.809,0.642-9.881,1.804c1.87-0.382,3.731-0.821,5.631-1.065
				c3.327-0.426,6.582-0.077,9.785,0.914c5.688,1.761,11.03,4.453,14.799,9.195c3.59,4.52,5.677,9.859,5.929,15.638
				c0.14,3.216,0.025,6.581-1.058,9.648c-0.437,1.238-0.974,2.427-1.557,3.593h1.697c1.668-3.58,2.6-7.569,2.6-11.779
				C205.502,100.771,192.988,88.258,177.557,88.258z"/>
			<path d="M177.557,96.742c12.814,0,23.204,9.877,23.204,22.062c0,3.276-0.752,6.385-2.099,9.181h-42.213
				c-1.346-2.796-2.1-5.904-2.1-9.181C154.35,106.619,164.74,96.742,177.557,96.742z"/>
		</g>
		<g>
			<path style="fill:#363635;" d="M157.825,121.131c0,10.9,8.835,19.732,19.731,19.732c10.896,0,19.73-8.833,19.73-19.732
				c0-10.896-8.835-19.73-19.73-19.73C166.66,101.4,157.825,110.235,157.825,121.131z"/>
			<path style="fill:#2D2D2D;" d="M157.825,121.131c0,10.9,8.835,19.732,19.731,19.732c10.896,0,19.73-8.833,19.73-19.732
				c0-10.896-8.835-19.73-19.73-19.73C166.66,101.4,157.825,110.235,157.825,121.131z"/>
			<path d="M164.168,121.131c0,7.394,5.992,13.388,13.389,13.388c7.392,0,13.387-5.994,13.387-13.388
				c0-7.393-5.995-13.387-13.387-13.387C170.16,107.744,164.168,113.738,164.168,121.131z"/>
			<path style="fill:#D5D3CB;" d="M165.332,121.131c0,6.752,5.473,12.224,12.225,12.224c6.75,0,12.221-5.472,12.221-12.224
				c0-6.75-5.471-12.223-12.221-12.223C170.805,108.908,165.332,114.381,165.332,121.131z"/>
			<g>
				<path style="fill:#4C4C49;" d="M171.428,113.851c-0.021-0.145-0.009-0.285,0.05-0.425c1.302-1.171,2.98-1.927,4.833-2.069
					c0.174,0.039,0.33,0.111,0.468,0.222c0.062,0.091,0.115,0.188,0.163,0.295v6.797c-0.035,0.091-0.081,0.176-0.134,0.26
					c-0.038,0.018-0.077,0.039-0.118,0.059c-0.112-0.012-0.221-0.034-0.324-0.068l-4.878-4.879
					C171.463,113.979,171.442,113.915,171.428,113.851z"/>
				<path style="fill:#4C4C49;" d="M167.852,120.563c-0.115-0.088-0.206-0.198-0.264-0.335c0.093-1.749,0.743-3.471,1.954-4.88
					c0.149-0.097,0.313-0.156,0.488-0.177c0.107,0.021,0.215,0.053,0.322,0.097l4.807,4.805c0.036,0.09,0.068,0.182,0.088,0.277
					c-0.012,0.041-0.027,0.085-0.042,0.126c-0.086,0.07-0.179,0.132-0.277,0.18h-6.898
					C167.969,120.631,167.909,120.599,167.852,120.563z"/>
				<path style="fill:#4C4C49;" d="M170.186,127.621c-0.146,0.021-0.287,0.011-0.426-0.045c-1.193-1.279-1.978-2.945-2.153-4.795
					c0.034-0.174,0.104-0.332,0.214-0.472c0.089-0.063,0.186-0.12,0.293-0.169l6.795-0.117c0.091,0.034,0.178,0.078,0.262,0.129
					c0.02,0.039,0.043,0.079,0.059,0.118c-0.006,0.11-0.027,0.221-0.063,0.325l-4.79,4.961
					C170.313,127.584,170.25,127.604,170.186,127.621z"/>
				<path style="fill:#4C4C49;" d="M176.778,130.648c-0.091,0.114-0.201,0.205-0.339,0.258c-1.747-0.116-3.459-0.793-4.852-2.021
					c-0.094-0.15-0.152-0.315-0.169-0.492c0.022-0.105,0.055-0.216,0.098-0.321l4.875-4.737c0.091-0.037,0.185-0.065,0.277-0.084
					c0.043,0.014,0.086,0.028,0.128,0.045c0.067,0.086,0.127,0.179,0.176,0.279l-0.097,6.897
					C176.846,130.533,176.813,130.592,176.778,130.648z"/>
				<path style="fill:#4C4C49;" d="M183.684,113.851c0.02-0.145,0.006-0.285-0.052-0.425c-1.302-1.171-2.98-1.927-4.833-2.069
					c-0.172,0.039-0.33,0.111-0.469,0.222c-0.06,0.091-0.114,0.188-0.161,0.295v6.797c0.035,0.091,0.081,0.176,0.135,0.26
					c0.037,0.018,0.078,0.039,0.119,0.059c0.108-0.012,0.218-0.034,0.325-0.068l4.875-4.879
					C183.648,113.979,183.67,113.915,183.684,113.851z"/>
				<path style="fill:#4C4C49;" d="M187.257,120.563c0.116-0.088,0.208-0.198,0.265-0.335c-0.092-1.749-0.745-3.471-1.955-4.88
					c-0.146-0.097-0.31-0.156-0.484-0.177c-0.111,0.021-0.217,0.053-0.327,0.097l-4.806,4.805c-0.037,0.09-0.065,0.182-0.086,0.277
					c0.012,0.041,0.025,0.085,0.041,0.126c0.086,0.07,0.18,0.132,0.278,0.18h6.897C187.141,120.631,187.203,120.599,187.257,120.563
					z"/>
				<path style="fill:#4C4C49;" d="M184.925,127.621c0.146,0.021,0.288,0.011,0.427-0.045c1.193-1.279,1.979-2.945,2.152-4.795
					c-0.035-0.174-0.105-0.332-0.215-0.472c-0.088-0.063-0.188-0.12-0.293-0.169l-6.793-0.117c-0.093,0.034-0.178,0.078-0.264,0.129
					c-0.02,0.039-0.04,0.079-0.06,0.118c0.009,0.11,0.029,0.221,0.064,0.325l4.793,4.961
					C184.799,127.584,184.861,127.604,184.925,127.621z"/>
				<path style="fill:#4C4C49;" d="M178.33,130.648c0.093,0.114,0.201,0.205,0.343,0.258c1.745-0.116,3.46-0.793,4.85-2.021
					c0.095-0.15,0.151-0.315,0.17-0.492c-0.024-0.105-0.055-0.216-0.101-0.321l-4.874-4.737c-0.09-0.037-0.184-0.065-0.277-0.084
					c-0.044,0.014-0.085,0.028-0.127,0.045c-0.07,0.086-0.128,0.179-0.177,0.279l0.099,6.897
					C178.264,130.533,178.295,130.592,178.33,130.648z"/>
				<polygon style="fill:#4C4C49;" points="177.539,121.242 177.539,121.242 177.539,121.242 				"/>
				<polygon style="fill:#4C4C49;" points="177.539,121.242 177.539,121.242 177.539,121.242 				"/>
			</g>
			<path style="fill:#D5D3CB;" d="M173.965,121.131c0,1.982,1.608,3.592,3.592,3.592c1.98,0,3.589-1.609,3.589-3.592
				c0-1.981-1.608-3.589-3.589-3.589C175.572,117.542,173.965,119.149,173.965,121.131z"/>
			<path style="fill:#4C4C49;" d="M175.229,119.366c0,0.246,0.203,0.446,0.449,0.446c0.247,0,0.446-0.2,0.446-0.446
				c0-0.248-0.199-0.446-0.446-0.446C175.432,118.92,175.229,119.118,175.229,119.366z"/>
			<circle style="fill:#4C4C49;" cx="177.539" cy="118.728" r="0.446"/>
			<path style="fill:#4C4C49;" d="M178.986,119.436c0,0.246,0.2,0.445,0.447,0.445c0.245,0,0.446-0.199,0.446-0.445
				c0-0.247-0.201-0.447-0.446-0.447C179.186,118.988,178.986,119.188,178.986,119.436z"/>
			<path style="fill:#4C4C49;" d="M175.229,123.273c0-0.246,0.203-0.447,0.449-0.447c0.247,0,0.446,0.201,0.446,0.447
				c0,0.247-0.199,0.447-0.446,0.447C175.432,123.721,175.229,123.521,175.229,123.273z"/>
			<path style="fill:#4C4C49;" d="M174.354,121.407c0-0.247,0.201-0.446,0.449-0.446c0.246,0,0.445,0.199,0.445,0.446
				c0,0.247-0.199,0.446-0.445,0.446C174.555,121.854,174.354,121.654,174.354,121.407z"/>
			<path style="fill:#4C4C49;" d="M179.863,121.407c0-0.247,0.199-0.446,0.445-0.446c0.248,0,0.448,0.199,0.448,0.446
				c0,0.247-0.2,0.446-0.448,0.446C180.063,121.854,179.863,121.654,179.863,121.407z"/>
			<circle style="fill:#4C4C49;" cx="177.539" cy="123.912" r="0.446"/>
			<path style="fill:#4C4C49;" d="M178.986,123.204c0-0.245,0.2-0.446,0.447-0.446c0.245,0,0.446,0.201,0.446,0.446
				c0,0.248-0.201,0.448-0.446,0.448C179.186,123.652,178.986,123.452,178.986,123.204z"/>
		</g>
	</g>
	<g>
		<g>
			<path style="fill:#ADAFB2;" d="M77.025,118.804c0-12.185-10.391-22.062-23.204-22.062c-12.816,0-23.206,9.877-23.206,22.062
				c0,3.276,0.753,6.385,2.1,9.181h-4.243c-1.665-3.58-2.597-7.569-2.597-11.779c0-15.434,12.511-27.947,27.946-27.947
				c15.432,0,27.945,12.514,27.945,27.947c0,4.21-0.932,8.199-2.599,11.779h-4.241C76.273,125.188,77.025,122.08,77.025,118.804z"/>
			<path style="opacity:0.5;fill:#535658;" d="M53.821,88.258c-4.429,0-8.614,1.035-12.336,2.868
				c9.387-3.054,19.88-3.037,27.789,3.068c5.211,4.021,9.206,10.817,10.384,17.295c1.027,5.651,0.75,11.257-1.863,16.495h1.373
				c1.667-3.58,2.599-7.569,2.599-11.779C81.767,100.771,69.253,88.258,53.821,88.258z"/>
			<path d="M53.821,96.742c12.813,0,23.204,9.877,23.204,22.062c0,3.276-0.752,6.385-2.099,9.181H32.715
				c-1.347-2.796-2.1-5.904-2.1-9.181C30.615,106.619,41.005,96.742,53.821,96.742z"/>
		</g>
		<g>
			<path style="fill:#363635;" d="M34.09,121.131c0,10.9,8.835,19.732,19.732,19.732c10.895,0,19.731-8.833,19.731-19.732
				c0-10.896-8.836-19.73-19.731-19.73C42.925,101.4,34.09,110.235,34.09,121.131z"/>
			<path style="fill:#222222;" d="M34.09,121.131c0,10.9,8.835,19.732,19.732,19.732c10.895,0,19.731-8.833,19.731-19.732
				c0-10.896-8.836-19.73-19.731-19.73C42.925,101.4,34.09,110.235,34.09,121.131z"/>
			<path style="fill:#2D2D2D;" d="M34.09,121.131c0,10.9,8.835,19.732,19.732,19.732c10.895,0,19.731-8.833,19.731-19.732
				c0-10.896-8.836-19.73-19.731-19.73C42.925,101.4,34.09,110.235,34.09,121.131z"/>
			<g>
				<path style="fill:#95979A;" d="M54.291,104.234c8.318,0,15.361,5.458,17.75,12.986c-1.775-8.434-9.259-14.769-18.22-14.769
					c-10.284,0-18.622,8.339-18.622,18.622c0,1.965,0.307,3.859,0.871,5.637c-0.262-1.244-0.401-2.532-0.401-3.854
					C35.669,112.574,44.006,104.234,54.291,104.234z"/>
			</g>
			<path d="M40.433,121.131c0,7.394,5.992,13.388,13.389,13.388c7.392,0,13.388-5.994,13.388-13.388
				c0-7.393-5.996-13.387-13.388-13.387C46.425,107.744,40.433,113.738,40.433,121.131z"/>
			<path style="fill:#D5D3CB;" d="M41.597,121.131c0,6.752,5.474,12.224,12.225,12.224c6.75,0,12.22-5.472,12.22-12.224
				c0-6.75-5.47-12.223-12.22-12.223C47.07,108.908,41.597,114.381,41.597,121.131z"/>
			<g>
				<path style="fill:#4C4C49;" d="M47.692,113.851c-0.021-0.145-0.009-0.285,0.05-0.425c1.303-1.171,2.98-1.927,4.833-2.069
					c0.175,0.039,0.33,0.111,0.468,0.222c0.063,0.091,0.115,0.188,0.164,0.295v6.797c-0.037,0.091-0.082,0.176-0.135,0.26
					c-0.038,0.018-0.077,0.039-0.118,0.059c-0.112-0.012-0.22-0.034-0.324-0.068l-4.878-4.879
					C47.728,113.979,47.707,113.915,47.692,113.851z"/>
				<path style="fill:#4C4C49;" d="M44.117,120.563c-0.115-0.088-0.206-0.198-0.264-0.335c0.094-1.749,0.744-3.471,1.954-4.88
					c0.149-0.097,0.313-0.156,0.488-0.177c0.106,0.021,0.216,0.053,0.322,0.097l4.808,4.805c0.035,0.09,0.068,0.182,0.087,0.277
					c-0.012,0.041-0.027,0.085-0.042,0.126c-0.086,0.07-0.178,0.132-0.277,0.18h-6.898
					C44.233,120.631,44.174,120.599,44.117,120.563z"/>
				<path style="fill:#4C4C49;" d="M46.449,127.621c-0.145,0.021-0.285,0.011-0.424-0.045c-1.194-1.279-1.979-2.945-2.154-4.795
					c0.035-0.174,0.104-0.332,0.215-0.472c0.088-0.063,0.186-0.12,0.293-0.169l6.795-0.117c0.09,0.034,0.178,0.078,0.262,0.129
					c0.019,0.039,0.042,0.079,0.059,0.118c-0.007,0.11-0.028,0.221-0.063,0.325l-4.791,4.961
					C46.577,127.584,46.516,127.604,46.449,127.621z"/>
				<path style="fill:#4C4C49;" d="M53.043,130.648c-0.091,0.114-0.201,0.205-0.339,0.258c-1.747-0.116-3.459-0.793-4.852-2.021
					c-0.094-0.15-0.152-0.315-0.169-0.492c0.023-0.105,0.055-0.216,0.098-0.321l4.875-4.737c0.092-0.037,0.184-0.065,0.277-0.084
					c0.043,0.014,0.086,0.028,0.128,0.045c0.067,0.086,0.126,0.179,0.177,0.279l-0.098,6.897
					C53.111,130.533,53.078,130.592,53.043,130.648z"/>
				<path style="fill:#4C4C49;" d="M59.949,113.851c0.018-0.145,0.005-0.285-0.053-0.425c-1.301-1.171-2.98-1.927-4.832-2.069
					c-0.172,0.039-0.332,0.111-0.469,0.222c-0.061,0.091-0.115,0.188-0.162,0.295v6.797c0.035,0.091,0.081,0.176,0.135,0.26
					c0.037,0.018,0.078,0.039,0.119,0.059c0.109-0.012,0.219-0.034,0.326-0.068l4.875-4.879
					C59.913,113.979,59.935,113.915,59.949,113.851z"/>
				<path style="fill:#4C4C49;" d="M63.521,120.563c0.117-0.088,0.208-0.198,0.264-0.335c-0.091-1.749-0.744-3.471-1.953-4.88
					c-0.147-0.097-0.311-0.156-0.485-0.177c-0.11,0.021-0.216,0.053-0.327,0.097l-4.805,4.805c-0.038,0.09-0.066,0.182-0.086,0.277
					c0.011,0.041,0.024,0.085,0.04,0.126c0.085,0.07,0.18,0.132,0.278,0.18h6.897C63.406,120.631,63.468,120.599,63.521,120.563z"/>
				<path style="fill:#4C4C49;" d="M61.19,127.621c0.146,0.021,0.289,0.011,0.427-0.045c1.193-1.279,1.98-2.945,2.151-4.795
					c-0.035-0.174-0.104-0.332-0.213-0.472c-0.088-0.063-0.188-0.12-0.293-0.169l-6.794-0.117c-0.093,0.034-0.178,0.078-0.263,0.129
					c-0.02,0.039-0.041,0.079-0.061,0.118c0.009,0.11,0.029,0.221,0.063,0.325l4.794,4.961
					C61.065,127.584,61.127,127.604,61.19,127.621z"/>
				<path style="fill:#4C4C49;" d="M54.596,130.648c0.092,0.114,0.201,0.205,0.342,0.258c1.746-0.116,3.46-0.793,4.851-2.021
					c0.095-0.15,0.151-0.315,0.171-0.492c-0.024-0.105-0.055-0.216-0.102-0.321l-4.873-4.737c-0.09-0.037-0.184-0.065-0.278-0.084
					c-0.044,0.014-0.085,0.028-0.126,0.045c-0.07,0.086-0.129,0.179-0.178,0.279l0.1,6.897
					C54.528,130.533,54.561,130.592,54.596,130.648z"/>
				<polygon style="fill:#4C4C49;" points="53.804,121.242 53.804,121.242 53.804,121.242 				"/>
				<polygon style="fill:#4C4C49;" points="53.804,121.242 53.804,121.242 53.804,121.242 				"/>
			</g>
			<path style="fill:#D5D3CB;" d="M50.231,121.131c0,1.982,1.606,3.592,3.591,3.592c1.98,0,3.589-1.609,3.589-3.592
				c0-1.981-1.608-3.589-3.589-3.589C51.837,117.542,50.231,119.149,50.231,121.131z"/>
			<path style="fill:#4C4C49;" d="M51.494,119.366c0,0.246,0.201,0.446,0.448,0.446c0.247,0,0.446-0.2,0.446-0.446
				c0-0.248-0.199-0.446-0.446-0.446C51.695,118.92,51.494,119.118,51.494,119.366z"/>
			<path style="fill:#4C4C49;" d="M53.358,118.728c0,0.247,0.199,0.446,0.445,0.446c0.245,0,0.446-0.199,0.446-0.446
				s-0.201-0.446-0.446-0.446C53.558,118.281,53.358,118.48,53.358,118.728z"/>
			<path style="fill:#4C4C49;" d="M55.251,119.436c0,0.246,0.2,0.445,0.448,0.445c0.244,0,0.445-0.199,0.445-0.445
				c0-0.247-0.201-0.447-0.445-0.447C55.451,118.988,55.251,119.188,55.251,119.436z"/>
			<path style="fill:#4C4C49;" d="M51.494,123.273c0-0.246,0.201-0.447,0.448-0.447c0.247,0,0.446,0.201,0.446,0.447
				c0,0.247-0.199,0.447-0.446,0.447C51.695,123.721,51.494,123.521,51.494,123.273z"/>
			<path style="fill:#4C4C49;" d="M50.619,121.407c0-0.247,0.2-0.446,0.448-0.446c0.246,0,0.445,0.199,0.445,0.446
				c0,0.247-0.199,0.446-0.445,0.446C50.819,121.854,50.619,121.654,50.619,121.407z"/>
			<path style="fill:#4C4C49;" d="M56.129,121.407c0-0.247,0.199-0.446,0.444-0.446c0.248,0,0.448,0.199,0.448,0.446
				c0,0.247-0.2,0.446-0.448,0.446C56.328,121.854,56.129,121.654,56.129,121.407z"/>
			<path style="fill:#4C4C49;" d="M53.358,123.912c0-0.249,0.199-0.446,0.445-0.446c0.245,0,0.446,0.197,0.446,0.446
				c0,0.246-0.201,0.446-0.446,0.446C53.558,124.358,53.358,124.158,53.358,123.912z"/>
			<path style="fill:#4C4C49;" d="M55.251,123.204c0-0.245,0.2-0.446,0.448-0.446c0.244,0,0.445,0.201,0.445,0.446
				c0,0.248-0.201,0.448-0.445,0.448C55.451,123.652,55.251,123.452,55.251,123.204z"/>
		</g>
	</g>
	<path d="M42.472,69.803l132.114,7.793c0,0,8.882,1.064,5.922-4.958c-2.961-6.021-27.386-48.883-39.598-51.362
		c-12.213-2.48-58.471-9.918-78.455-8.857c0,0-11.699-0.435-16.767,8.461c0,0-10.988,23.419-13.579,30.151
		C29.519,57.76,29.889,68.388,42.472,69.803z"/>
	<path style="fill:#00384B;" d="M176.16,70.541c-2.818-5.537-26.064-44.953-37.688-47.234c-9.244-1.813-38.97-6.508-60.324-7.863
		c-1.094,11.204-5.446,47.205-6.116,54.044l98.492,5.613C170.524,75.101,178.977,76.078,176.16,70.541z"/>
	<path style="fill:#00384B;" d="M176.16,70.541c-2.818-5.537-26.064-44.953-37.688-47.234c-9.244-1.813-38.97-6.508-60.324-7.863
		c-1.094,11.204-5.446,47.205-6.116,54.044l98.492,5.613C170.524,75.101,178.977,76.078,176.16,70.541z"/>
	<path style="fill:#00384B;" d="M69.631,15.082c-2.123-0.032-4.081-0.009-5.826,0.081c0,0-11.135-0.401-15.958,7.78
		c0,0-10.458,21.537-12.923,27.727c-2.467,6.19-2.113,15.961,9.861,17.265l12.574,0.717C58.603,62.346,66.903,26.661,69.631,15.082z
		"/>
	<path style="fill:#00384B;" d="M69.631,15.082c-2.123-0.032-4.081-0.009-5.826,0.081c0,0-11.135-0.401-15.958,7.78
		c0,0-10.458,21.537-12.923,27.727c-2.467,6.19-2.113,15.961,9.861,17.265l12.574,0.717C58.603,62.346,66.903,26.661,69.631,15.082z
		"/>
	<path style="opacity:0.7;fill:#00384B;" d="M103.166,39.039c18.429,2.987,36.68,8.276,53.184,17.136
		c6.602,3.545,12.854,7.647,18.674,12.272c-5.533-9.85-25.91-43.053-36.551-45.141c-9.244-1.813-38.97-6.508-60.324-7.863
		c-0.418,4.291-1.315,12.221-2.301,20.757C84.996,36.662,94.131,37.573,103.166,39.039z"/>
	<path style="opacity:0.7;fill:#00384B;" d="M46.88,35.887c5.966,0.238,11.935-0.051,17.903-0.02
		c1.959-8.456,3.809-16.371,4.848-20.785c-2.123-0.032-4.081-0.009-5.826,0.081c0,0-11.135-0.401-15.958,7.78
		c0,0-2.943,6.063-6.075,12.678C43.474,35.723,45.176,35.818,46.88,35.887z"/>
	<path style="fill:#00384B;" d="M197.416,78.026c1.188,0.232,2.354,0.419,3.384,0.504c0,0-29.332-43.59-44.718-55.974
		c0,0-1.438,3.689,3.816,10.069c3.273,3.973,6.088,8.386,8.975,12.64c4.096,6.035,8.102,12.131,12.169,18.185
		c2.027,3.017,3.63,6.392,6.318,8.906C190.184,74.996,193.832,76.693,197.416,78.026z"/>
	<path d="M196.438,72.187c-2.922,0.155-5.996-0.194-8.61-1.347c-1.528-0.675-2.785-1.675-3.919-2.82
		c1.002,1.561,2.087,3.061,3.452,4.337c2.823,2.64,6.472,4.337,10.056,5.67c1.188,0.232,2.354,0.419,3.384,0.504
		C200.8,78.53,199.152,76.083,196.438,72.187z"/>
	<path style="fill:#00384B;" d="M36.443,13.051c0,0-18.95,27.58-21.577,39.588c0,0-2.438,14.447-0.751,13.696
		c0,0,1.689,0.563,3.378,0c1.688-0.563,21.952-45.967,21.952-45.967S42.26,12.426,36.443,13.051z"/>
	<g>
		<path d="M36.443,13.051c0,0-0.25,0.363-0.678,0.998c3.628,0.711,1.474,6.789,1.474,6.789S18.343,63.182,16.768,63.705
			c-1.575,0.526-3.149,0-3.149,0c-0.03,0.014-0.057,0.012-0.084,0.016c-0.058,1.7,0.077,2.839,0.581,2.614c0,0,1.689,0.563,3.378,0
			c1.688-0.563,21.952-45.967,21.952-45.967S42.26,12.426,36.443,13.051z"/>
	</g>
	<g>
		<path d="M177.723,69.713l5.565,2.502c0,0,2.877,1.501,1.673,3.4c0,0-0.076,0.618-2.174,0.665c-2.096,0.047-7.441-2.69-7.441-2.69
			L177.723,69.713z"/>
		<g>
			<g>
				<path style="fill:#363636;" d="M169.852,67.011c1.013-2.825,6.17-2.428,6.179-2.428c2.208,0.163,3.878,2.396,5.13,4.771
					c1.445,2.737,0.37,8.332-2.345,7.812c-3.112-0.597-1.924-0.153-6.96-1.63C170.539,75.15,168.615,70.453,169.852,67.011z"/>
			</g>
			<g>
				<path style="fill:#1C1C1B;" d="M169.852,67.011c0.091-0.258,0.22-0.489,0.375-0.695c-0.053,1.323,0.238,2.642,1.154,3.672
					c1.145,1.284,2.815,1.953,4.439,2.403c0.977,0.272,1.936,0.615,2.932,0.813c0.795,0.16,1.873,0.371,2.615-0.085
					c0.165-0.104,0.308-0.222,0.427-0.351c-0.104,2.41-1.182,4.744-2.979,4.397c-3.112-0.597-1.924-0.153-6.96-1.63
					C170.539,75.15,168.615,70.453,169.852,67.011z"/>
			</g>
		</g>
	</g>
	<path style="fill:#ADAFB2;" d="M214.121,95.604c0,0,0.563-7.13-4.128-10.132c-4.69-3.002-18.199-7.317-14.822-1.126
		c3.377,6.191,11.632,16.886,15.01,16.886C213.558,101.232,214.309,99.169,214.121,95.604z"/>
	<path style="fill:#D5D3CB;" d="M213.622,95.1c0,0,0.521-6.463-3.823-9.185c-4.345-2.72-16.857-6.632-13.729-1.021
		c3.128,5.613,10.775,15.307,13.903,15.307C213.101,100.201,213.795,98.33,213.622,95.1z"/>
	<path style="fill:#D5D3CB;" d="M213.622,95.1c0,0,0.521-6.463-3.823-9.185c-4.345-2.72-16.857-6.632-13.729-1.021
		c3.128,5.613,10.775,15.307,13.903,15.307C213.101,100.201,213.795,98.33,213.622,95.1z"/>
	<path style="fill:#B3B2AC;" d="M210.501,93.263c0,0,0.413-5.12-3.03-7.277c-3.441-2.155-13.356-5.255-10.878-0.808
		c2.478,4.447,8.538,12.127,11.017,12.127C210.088,97.305,210.638,95.823,210.501,93.263z"/>
	<path style="opacity:0.6;fill:#ADAFB2;" d="M53.704,89.318c0,0-16.323-0.094-24.327,15.292c0,0-6.004,10.256-0.125,22.765
		C29.252,127.375,19.557,97.699,53.704,89.318z"/>
	<path style="opacity:0.6;fill:#ADAFB2;" d="M177.534,89.318c0,0-16.323-0.094-24.327,15.292c0,0-6.004,10.256-0.125,22.765
		C153.082,127.375,143.387,97.699,177.534,89.318z"/>
	<path style="fill:#222222;" d="M210.369,115.617l-5.129,12.509c0,0-0.626,0.625,0.75,1h3.878c0,0,1.501-0.499,3.002-2.501
		c1.501-2.002,6.755-8.631,7.13-10.507c0.375-1.876-0.25-6.505-0.25-6.505s-0.25-1.125-2.502-1.125c-2.252,0-3.189,0-3.189,0
		s-1.813,0.625-2.188,2.127C211.494,112.115,210.369,115.617,210.369,115.617z"/>
	<path style="fill:#12576F;" d="M158.396,26.372c0,0-0.563,1.688,3.378,6.566c3.94,4.878,14.071,19.888,19.513,28.706
		c5.441,8.818,8.067,8.068,10.882,8.631c0,0,1.688,0.188,0-2.252C190.48,65.585,164.964,30.5,158.396,26.372z"/>
	<path style="fill:#676565;" d="M214.496,108.973c0,0-1.642,0.422-1.924,1.5c-0.281,1.079-1.547,5.488-1.547,5.488
		s-0.188,0.751,1.172,0.845c1.36,0.094,5.394,0.047,5.394,0.047s1.876,0.188,1.876-1.267s-0.094-5.16-0.094-5.16s0-1.5-1.313-1.547
		L214.496,108.973z"/>
	<path style="fill:#ADAFB2;" d="M32.629,86.23h-2.964c-2.461,0-4.464-2.002-4.464-4.463v-2.965c0-2.461,2.003-4.463,4.464-4.463
		h2.964c2.461,0,4.463,2.002,4.463,4.463v2.965C37.092,84.229,35.09,86.23,32.629,86.23z M29.665,75.09
		c-2.047,0-3.713,1.666-3.713,3.713v2.965c0,2.047,1.666,3.713,3.713,3.713h2.964c2.047,0,3.713-1.666,3.713-3.713v-2.965
		c0-2.047-1.666-3.713-3.713-3.713H29.665z"/>
	<path style="fill:#12576F;" d="M35.818,14.927c0,0-15.761,24.828-19.013,33.834c0,0-0.876,1.688-1.501,4.315
		c-0.625,2.627-1.251,9.944-1.251,9.944s1.126-7.566,2.502-10.632c1.376-3.064,19.825-35.148,19.825-35.148s0.813-1.001,0.438-1.626
		C36.443,14.989,35.818,14.927,35.818,14.927z"/>
	<g>
		<path style="fill:#95979A;" d="M177.964,104.267c8.318,0,15.362,5.458,17.751,12.985c-1.775-8.434-9.259-14.768-18.22-14.768
			c-10.284,0-18.622,8.338-18.622,18.621c0,1.966,0.307,3.859,0.871,5.638c-0.262-1.245-0.402-2.533-0.402-3.855
			C159.342,112.605,167.68,104.267,177.964,104.267z"/>
	</g>
	<path style="opacity:0.9;fill:#FFFFFF;" d="M197.735,83.096c0,0-2.377,0.251-0.313,3.314c2.064,3.064,8.256,10.633,10.508,11.946
		c0,0-10.132-12.321-6.881-13.697c0,0,0.627-0.438,2.565,0.125c1.939,0.563,6.066,1.751,6.691,2.814c0,0-0.999-1.751-3.689-2.939
		C203.926,83.471,199.111,82.783,197.735,83.096z"/>
	<g>
		<path style="fill:#5D1707;" d="M11.674,113.022l4.818-0.284c0,0,1.322-0.096,1.795,0.756l1.603,3.258c0,0,0.146,0.518-0.659,0.518
			c-0.803,0-4.769,0-4.769,0s-1.467,0.049-2.034-0.376c-0.566-0.425-1.459-3.306-1.459-3.306S10.701,112.994,11.674,113.022z"/>
		<path style="fill:#E3301F;" d="M11.988,113.502l2.816-0.166c0,0,0.773-0.055,1.049,0.441l0.937,1.904c0,0,0.085,0.305-0.383,0.305
			c-0.47,0-2.789,0-2.789,0s-0.714,0.04-1.044-0.209c-0.333-0.248-0.998-1.944-0.998-1.944S11.472,113.422,11.988,113.502z"/>
	</g>
	<g>
		<path style="fill:#8E310E;" d="M12.553,70.088l-0.876,13.133c0,0,0.094,1.313,3.096,0.563c3.002-0.751,3.784-1.876,4.534-6.004
			c0.751-4.128,0.938-6.004,0.938-6.004s0.375-3.565-1.782-3.753c-2.158-0.188-4.315-0.094-4.315-0.094S12.647,68.117,12.553,70.088
			z"/>
		<path style="fill:#DC4E14;" d="M12.477,70.601l-0.8,11.986c0,0,0.086,1.198,2.825,0.515c2.74-0.686,3.453-1.713,4.139-5.48
			c0.685-3.768,0.857-5.479,0.857-5.479s0.342-3.254-1.628-3.426c-1.968-0.171-3.938-0.086-3.938-0.086S12.563,68.803,12.477,70.601
			z"/>
		<path style="fill:#DC4E14;" d="M14.965,69.149c0,0-1.758,0.001-2.002,1.151c-0.243,1.151-0.91,12.482-0.91,12.482l1.881-10.906
			c0,0,0.121-1.091,2.307-1.334c0,0,1.885-0.479,2.129-1.268L14.965,69.149z"/>
	</g>
	<path style="opacity:0.8;fill:#E8E6D6;" d="M52.537,8.734c37.523-1.398,92.258,6.943,92.258,6.943
		c-4.223-2.252-39.307-7.036-60.603-8.256c-21.295-1.22-37.712,0.281-37.712,0.281c-5.811,0.646-8.352,4.639-8.435,4.773
		C42.443,9.619,47.432,8.803,52.537,8.734z"/>
	<path style="opacity:0.3;fill:#E8E6D6;" d="M29.501,57.83c0,0-1.001,12.007,14.634,13.133l131.586,7.13L65.398,74.215L20.995,74.09
		c0,0,1.251-6.004-1.251-7.379l22.39-49.033c0,0,0.501-1.876,2.377-1.75c0,0,1.626-0.25,0.876,1.626
		c-0.751,1.876-15.01,35.147-15.01,35.147S29.125,56.079,29.501,57.83z"/>
	<g>
		<path style="fill:#8E9093;" d="M82.623,74.783l-6.875-0.313c0,0-1.359-0.024-0.863,1.165c0.493,1.19,0.637,1.404,0.637,1.404
			s0.135,0.614,1.457,0.878c1.318,0.262,9.27,0.962,9.27,0.962s1.117,0.168,2.885-0.637c1.764-0.803,1.744-2.31,1.168-2.693
			c0,0,0.019-0.157-1.11-0.389C88.06,74.936,82.623,74.783,82.623,74.783z"/>
		<path style="opacity:0.6;fill:#FFFFFF;" d="M88.443,75.347l-11.568-0.609c0,0-1.727-0.055-1.494,0.503
			c0.275,0.664,0.443,1.125,2.201,1.314c1.759,0.19,8.477,0.771,8.477,0.771s2.518,0.241,3.375-0.421
			C90.294,76.242,89.896,75.485,88.443,75.347z"/>
	</g>
	<path style="fill:#BABAAE;" d="M138.953,123.567c-0.179,0-0.283-0.009-0.291-0.009L89.54,123.56
		c-1.374-0.104-2.433-0.632-3.179-1.568c-1.623-2.043-1.154-5.292-1.133-5.43c1.866-15.491-9.344-23.911-12.683-24.913
		c-4.044-1.213-3.268-4.726-3.259-4.761l2.434-14.423c0.035-0.205,0.235-0.344,0.433-0.309c0.204,0.035,0.343,0.229,0.308,0.433
		l-2.439,14.447c-0.03,0.138-0.615,2.887,2.74,3.894c3.472,1.041,15.136,9.754,13.211,25.732c-0.006,0.042-0.442,3.08,0.979,4.864
		c0.609,0.766,1.49,1.197,2.617,1.284l49.129-0.001c0.262,0.021,5.703,0.433,6.758-6.25c0.102-0.639,0.193-1.364,0.296-2.161
		c1.061-8.304,3.034-23.76,23.995-29.288c0.146-0.021,9.803-1.282,10.735-5.719c0.042-0.204,0.243-0.333,0.444-0.29
		c0.203,0.043,0.332,0.242,0.29,0.444c-1.043,4.958-10.907,6.247-11.327,6.3c-20.423,5.39-22.355,20.518-23.393,28.647
		c-0.104,0.805-0.197,1.538-0.299,2.184C145.175,123.148,140.215,123.567,138.953,123.567z"/>
	<path style="fill:#E8E6D6;" d="M32.19,75.404h-2.689c0,0-2.938,0.625-3.064,3.189v2.815c0,0,0.563-3.878,2.313-4.503
		C30.502,76.28,32.19,75.404,32.19,75.404z"/>
	<polygon style="fill:#252727;" points="71.341,15.114 60.083,68.587 69.84,69.149 75.656,15.678 	"/>
	<g>
		<path style="fill:#E86408;" d="M189.583,81.658l-8.12-0.368c0,0,0.12,0.882,0.957,1.637c0.833,0.756,4.809,0.567,4.809,0.567
			s1.791,0.094,2.354-0.473C190.147,82.455,190.244,81.688,189.583,81.658z"/>
		<path style="opacity:0.5;fill:#E86408;" d="M189.419,82l-5.398-0.246c0,0,0.077,0.59,0.635,1.09
			c0.556,0.502,3.198,0.377,3.198,0.377s1.19,0.063,1.565-0.313C189.793,82.529,189.857,82.02,189.419,82z"/>
	</g>
</g>
<g>
	<path style="fill:#4D5052;" d="M22.951,121.285c0,0-1.162-5.612-3.484-6.677c-2.322-1.065-7.548-1.742-7.548-1.742
		s-0.968,0.29-0.581,2.032l0.387,1.838c0,0,0.098,0.775,1.258,1.356c1.162,0.58,9.291,5.031,9.291,5.031
		S23.241,123.318,22.951,121.285z"/>
	<path style="fill:#686B6D;" d="M21.188,120.216c0,0-0.95-4.587-2.848-5.457c-1.898-0.87-6.169-1.424-6.169-1.424
		s-0.79,0.237-0.474,1.661l0.315,1.502c0,0,0.079,0.633,1.028,1.107c0.949,0.476,7.592,4.111,7.592,4.111
		S21.424,121.877,21.188,120.216z"/>
	<path style="fill:#E8E6D6;" d="M215.265,97.203c-0.075-0.944-0.152-1.888-0.249-2.822c-0.291-2.842-0.52-5.114-2.392-7.646
		c-3.997-3.101-8.072-5.849-12.086-8.287c-3.544-5.667-39.452-57.767-55.212-63.52c-0.543-0.198-22.354-4.526-28.871-5.479
		c-9.077-1.328-18.209-1.884-27.316-2.417c-9.17-0.537-18.354-0.503-27.529-0.559c-6.702-0.041-10.07,0.238-15.223,0.856
		c-8.801,1.054-8.848,4.594-19.316,21.441C16.99,44.993,14.379,55.828,14.379,55.828l0.042,0.008L10.94,95.499l-3.059,9.138
		l3.129,14.771l16.49,8.561c0,0,180.717,0.246,180.867-0.03c4.788-8.782,2.42-4.951,6.303-11.527
		C217.317,111.93,215.907,101.791,215.265,97.203z"/>
	<path style="fill:#006DB8;" d="M21.54,99.211c7.845-11.161,19.963-15.905,33.429-14.748c15.6,1.34,30.135,9.365,40.007,21.528
		c5.279,6.505,8.064,14.138,10.072,22.058c7.589,0.005,15.299,0.01,22.914,0.014c-0.31-5.164-1.447-10.248-3.731-14.938
		c-9.645-19.809-30.559-26.173-50.14-31.875c-5.118-1.491-10.245-3.024-15.198-5.008c-3.482-1.394-7.151-3.084-9.557-6.098
		c-4.499-5.635-4.968-12.831-2.546-19.517C52.544,34.742,66.967,23.2,81.903,16.326c7.423-3.416,15.116-6.022,22.937-8.207
		c-5.232-0.463-10.472-0.781-15.702-1.088c-9.17-0.537-18.354-0.503-27.529-0.559c-6.702-0.041-10.07,0.238-15.223,0.856
		c-8.801,1.054-8.848,4.594-19.316,21.441C16.99,44.993,14.379,55.828,14.379,55.828l0.042,0.008L10.94,95.499l-3.059,9.138
		l3.129,14.771l2.392,1.241C14.653,112.968,17.138,105.474,21.54,99.211z"/>
	<path style="opacity:0.3;fill:#E8E6D6;" d="M31.374,95.355H10.952l-0.013,0.144l-2.967,8.862h17.221
		C26.688,100.989,28.734,97.931,31.374,95.355z"/>
	<path style="opacity:0.3;fill:#E8E6D6;" d="M81.406,95.355c2.457,2.383,4.269,5.314,5.851,8.471
		c0.088,0.177,0.176,0.357,0.266,0.535h57.228c0.425-1.451,0.961-2.867,1.583-4.207c0.77-1.661,1.691-3.33,2.839-4.799H81.406z"/>
	<path style="opacity:0.6;fill:#BABAAE;" d="M11.002,119.37l0.008,0.037l16.49,8.561c0,0,180.717,0.246,180.867-0.03
		c3.791-6.953,3.098-6.003,4.571-8.568H11.002z"/>
	<g>
		<g>
			<path style="fill:#ADAFB2;" d="M200.761,118.804c0-12.185-10.391-22.062-23.204-22.062c-12.816,0-23.207,9.877-23.207,22.062
				c0,3.276,0.754,6.385,2.1,9.181h-4.242c-1.665-3.58-2.598-7.569-2.598-11.779c0-15.434,12.512-27.947,27.947-27.947
				c15.432,0,27.945,12.514,27.945,27.947c0,4.21-0.932,8.199-2.6,11.779h-4.24C200.009,125.188,200.761,122.08,200.761,118.804z"/>
			<path style="opacity:0.5;fill:#535658;" d="M177.557,88.258c-3.48,0-6.809,0.642-9.881,1.804c1.87-0.382,3.731-0.821,5.631-1.065
				c3.327-0.426,6.582-0.077,9.785,0.914c5.688,1.761,11.03,4.453,14.799,9.195c3.59,4.52,5.677,9.859,5.929,15.638
				c0.14,3.216,0.025,6.581-1.058,9.648c-0.437,1.238-0.974,2.427-1.557,3.593h1.697c1.668-3.58,2.6-7.569,2.6-11.779
				C205.502,100.771,192.988,88.258,177.557,88.258z"/>
			<path d="M177.557,96.742c12.814,0,23.204,9.877,23.204,22.062c0,3.276-0.752,6.385-2.099,9.181h-42.213
				c-1.346-2.796-2.1-5.904-2.1-9.181C154.35,106.619,164.74,96.742,177.557,96.742z"/>
		</g>
		<g>
			<path style="fill:#363635;" d="M157.825,121.131c0,10.9,8.835,19.732,19.731,19.732c10.896,0,19.73-8.833,19.73-19.732
				c0-10.896-8.835-19.73-19.73-19.73C166.66,101.4,157.825,110.235,157.825,121.131z"/>
			<path style="fill:#2D2D2D;" d="M157.825,121.131c0,10.9,8.835,19.732,19.731,19.732c10.896,0,19.73-8.833,19.73-19.732
				c0-10.896-8.835-19.73-19.73-19.73C166.66,101.4,157.825,110.235,157.825,121.131z"/>
			<path d="M164.168,121.131c0,7.394,5.992,13.388,13.389,13.388c7.392,0,13.387-5.994,13.387-13.388
				c0-7.393-5.995-13.387-13.387-13.387C170.16,107.744,164.168,113.738,164.168,121.131z"/>
			<path style="fill:#D5D3CB;" d="M165.332,121.131c0,6.752,5.473,12.224,12.225,12.224c6.75,0,12.221-5.472,12.221-12.224
				c0-6.75-5.471-12.223-12.221-12.223C170.805,108.908,165.332,114.381,165.332,121.131z"/>
			<g>
				<path style="fill:#4C4C49;" d="M171.428,113.851c-0.021-0.145-0.009-0.285,0.05-0.425c1.302-1.171,2.98-1.927,4.833-2.069
					c0.174,0.039,0.33,0.111,0.468,0.222c0.062,0.091,0.115,0.188,0.163,0.295v6.797c-0.035,0.091-0.081,0.176-0.134,0.26
					c-0.038,0.018-0.077,0.039-0.118,0.059c-0.112-0.012-0.221-0.034-0.324-0.068l-4.878-4.879
					C171.463,113.979,171.442,113.915,171.428,113.851z"/>
				<path style="fill:#4C4C49;" d="M167.852,120.563c-0.115-0.088-0.206-0.198-0.264-0.335c0.093-1.749,0.743-3.471,1.954-4.88
					c0.149-0.097,0.313-0.156,0.488-0.177c0.107,0.021,0.215,0.053,0.322,0.097l4.807,4.805c0.036,0.09,0.068,0.182,0.088,0.277
					c-0.012,0.041-0.027,0.085-0.042,0.126c-0.086,0.07-0.179,0.132-0.277,0.18h-6.898
					C167.969,120.631,167.909,120.599,167.852,120.563z"/>
				<path style="fill:#4C4C49;" d="M170.186,127.621c-0.146,0.021-0.287,0.011-0.426-0.045c-1.193-1.279-1.978-2.945-2.153-4.795
					c0.034-0.174,0.104-0.332,0.214-0.472c0.089-0.063,0.186-0.12,0.293-0.169l6.795-0.117c0.091,0.034,0.178,0.078,0.262,0.129
					c0.02,0.039,0.043,0.079,0.059,0.118c-0.006,0.11-0.027,0.221-0.063,0.325l-4.79,4.961
					C170.313,127.584,170.25,127.604,170.186,127.621z"/>
				<path style="fill:#4C4C49;" d="M176.778,130.648c-0.091,0.114-0.201,0.205-0.339,0.258c-1.747-0.116-3.459-0.793-4.852-2.021
					c-0.094-0.15-0.152-0.315-0.169-0.492c0.022-0.105,0.055-0.216,0.098-0.321l4.875-4.737c0.091-0.037,0.185-0.065,0.277-0.084
					c0.043,0.014,0.086,0.028,0.128,0.045c0.067,0.086,0.127,0.179,0.176,0.279l-0.097,6.897
					C176.846,130.533,176.813,130.592,176.778,130.648z"/>
				<path style="fill:#4C4C49;" d="M183.684,113.851c0.02-0.145,0.006-0.285-0.052-0.425c-1.302-1.171-2.98-1.927-4.833-2.069
					c-0.172,0.039-0.33,0.111-0.469,0.222c-0.06,0.091-0.114,0.188-0.161,0.295v6.797c0.035,0.091,0.081,0.176,0.135,0.26
					c0.037,0.018,0.078,0.039,0.119,0.059c0.108-0.012,0.218-0.034,0.325-0.068l4.875-4.879
					C183.648,113.979,183.67,113.915,183.684,113.851z"/>
				<path style="fill:#4C4C49;" d="M187.257,120.563c0.116-0.088,0.208-0.198,0.265-0.335c-0.092-1.749-0.745-3.471-1.955-4.88
					c-0.146-0.097-0.31-0.156-0.484-0.177c-0.111,0.021-0.217,0.053-0.327,0.097l-4.806,4.805c-0.037,0.09-0.065,0.182-0.086,0.277
					c0.012,0.041,0.025,0.085,0.041,0.126c0.086,0.07,0.18,0.132,0.278,0.18h6.897C187.141,120.631,187.203,120.599,187.257,120.563
					z"/>
				<path style="fill:#4C4C49;" d="M184.925,127.621c0.146,0.021,0.288,0.011,0.427-0.045c1.193-1.279,1.979-2.945,2.152-4.795
					c-0.035-0.174-0.105-0.332-0.215-0.472c-0.088-0.063-0.188-0.12-0.293-0.169l-6.793-0.117c-0.093,0.034-0.178,0.078-0.264,0.129
					c-0.02,0.039-0.04,0.079-0.06,0.118c0.009,0.11,0.029,0.221,0.064,0.325l4.793,4.961
					C184.799,127.584,184.861,127.604,184.925,127.621z"/>
				<path style="fill:#4C4C49;" d="M178.33,130.648c0.093,0.114,0.201,0.205,0.343,0.258c1.745-0.116,3.46-0.793,4.85-2.021
					c0.095-0.15,0.151-0.315,0.17-0.492c-0.024-0.105-0.055-0.216-0.101-0.321l-4.874-4.737c-0.09-0.037-0.184-0.065-0.277-0.084
					c-0.044,0.014-0.085,0.028-0.127,0.045c-0.07,0.086-0.128,0.179-0.177,0.279l0.099,6.897
					C178.264,130.533,178.295,130.592,178.33,130.648z"/>
				<polygon style="fill:#4C4C49;" points="177.539,121.242 177.539,121.242 177.539,121.242 				"/>
				<polygon style="fill:#4C4C49;" points="177.539,121.242 177.539,121.242 177.539,121.242 				"/>
			</g>
			<path style="fill:#D5D3CB;" d="M173.965,121.131c0,1.982,1.608,3.592,3.592,3.592c1.98,0,3.589-1.609,3.589-3.592
				c0-1.981-1.608-3.589-3.589-3.589C175.572,117.542,173.965,119.149,173.965,121.131z"/>
			<path style="fill:#4C4C49;" d="M175.229,119.366c0,0.246,0.203,0.446,0.449,0.446c0.247,0,0.446-0.2,0.446-0.446
				c0-0.248-0.199-0.446-0.446-0.446C175.432,118.92,175.229,119.118,175.229,119.366z"/>
			<circle style="fill:#4C4C49;" cx="177.539" cy="118.728" r="0.446"/>
			<path style="fill:#4C4C49;" d="M178.986,119.436c0,0.246,0.2,0.445,0.447,0.445c0.245,0,0.446-0.199,0.446-0.445
				c0-0.247-0.201-0.447-0.446-0.447C179.186,118.988,178.986,119.188,178.986,119.436z"/>
			<path style="fill:#4C4C49;" d="M175.229,123.273c0-0.246,0.203-0.447,0.449-0.447c0.247,0,0.446,0.201,0.446,0.447
				c0,0.247-0.199,0.447-0.446,0.447C175.432,123.721,175.229,123.521,175.229,123.273z"/>
			<path style="fill:#4C4C49;" d="M174.354,121.407c0-0.247,0.201-0.446,0.449-0.446c0.246,0,0.445,0.199,0.445,0.446
				c0,0.247-0.199,0.446-0.445,0.446C174.555,121.854,174.354,121.654,174.354,121.407z"/>
			<path style="fill:#4C4C49;" d="M179.863,121.407c0-0.247,0.199-0.446,0.445-0.446c0.248,0,0.448,0.199,0.448,0.446
				c0,0.247-0.2,0.446-0.448,0.446C180.063,121.854,179.863,121.654,179.863,121.407z"/>
			<circle style="fill:#4C4C49;" cx="177.539" cy="123.912" r="0.446"/>
			<path style="fill:#4C4C49;" d="M178.986,123.204c0-0.245,0.2-0.446,0.447-0.446c0.245,0,0.446,0.201,0.446,0.446
				c0,0.248-0.201,0.448-0.446,0.448C179.186,123.652,178.986,123.452,178.986,123.204z"/>
		</g>
	</g>
	<g>
		<g>
			<path style="fill:#ADAFB2;" d="M77.025,118.804c0-12.185-10.391-22.062-23.204-22.062c-12.816,0-23.206,9.877-23.206,22.062
				c0,3.276,0.753,6.385,2.1,9.181h-4.243c-1.665-3.58-2.597-7.569-2.597-11.779c0-15.434,12.511-27.947,27.946-27.947
				c15.432,0,27.945,12.514,27.945,27.947c0,4.21-0.932,8.199-2.599,11.779h-4.241C76.273,125.188,77.025,122.08,77.025,118.804z"/>
			<path style="opacity:0.5;fill:#535658;" d="M53.821,88.258c-4.429,0-8.614,1.035-12.336,2.868
				c9.387-3.054,19.88-3.037,27.789,3.068c5.211,4.021,9.206,10.817,10.384,17.295c1.027,5.651,0.75,11.257-1.863,16.495h1.373
				c1.667-3.58,2.599-7.569,2.599-11.779C81.767,100.771,69.253,88.258,53.821,88.258z"/>
			<path d="M53.821,96.742c12.813,0,23.204,9.877,23.204,22.062c0,3.276-0.752,6.385-2.099,9.181H32.715
				c-1.347-2.796-2.1-5.904-2.1-9.181C30.615,106.619,41.005,96.742,53.821,96.742z"/>
		</g>
		<g>
			<path style="fill:#363635;" d="M34.09,121.131c0,10.9,8.835,19.732,19.732,19.732c10.895,0,19.731-8.833,19.731-19.732
				c0-10.896-8.836-19.73-19.731-19.73C42.925,101.4,34.09,110.235,34.09,121.131z"/>
			<path style="fill:#222222;" d="M34.09,121.131c0,10.9,8.835,19.732,19.732,19.732c10.895,0,19.731-8.833,19.731-19.732
				c0-10.896-8.836-19.73-19.731-19.73C42.925,101.4,34.09,110.235,34.09,121.131z"/>
			<path style="fill:#2D2D2D;" d="M34.09,121.131c0,10.9,8.835,19.732,19.732,19.732c10.895,0,19.731-8.833,19.731-19.732
				c0-10.896-8.836-19.73-19.731-19.73C42.925,101.4,34.09,110.235,34.09,121.131z"/>
			<g>
				<path style="fill:#95979A;" d="M54.291,104.234c8.318,0,15.361,5.458,17.75,12.986c-1.775-8.434-9.259-14.769-18.22-14.769
					c-10.284,0-18.622,8.339-18.622,18.622c0,1.965,0.307,3.859,0.871,5.637c-0.262-1.244-0.401-2.532-0.401-3.854
					C35.669,112.574,44.006,104.234,54.291,104.234z"/>
			</g>
			<path d="M40.433,121.131c0,7.394,5.992,13.388,13.389,13.388c7.392,0,13.388-5.994,13.388-13.388
				c0-7.393-5.996-13.387-13.388-13.387C46.425,107.744,40.433,113.738,40.433,121.131z"/>
			<path style="fill:#D5D3CB;" d="M41.597,121.131c0,6.752,5.474,12.224,12.225,12.224c6.75,0,12.22-5.472,12.22-12.224
				c0-6.75-5.47-12.223-12.22-12.223C47.07,108.908,41.597,114.381,41.597,121.131z"/>
			<g>
				<path style="fill:#4C4C49;" d="M47.692,113.851c-0.021-0.145-0.009-0.285,0.05-0.425c1.303-1.171,2.98-1.927,4.833-2.069
					c0.175,0.039,0.33,0.111,0.468,0.222c0.063,0.091,0.115,0.188,0.164,0.295v6.797c-0.037,0.091-0.082,0.176-0.135,0.26
					c-0.038,0.018-0.077,0.039-0.118,0.059c-0.112-0.012-0.22-0.034-0.324-0.068l-4.878-4.879
					C47.728,113.979,47.707,113.915,47.692,113.851z"/>
				<path style="fill:#4C4C49;" d="M44.117,120.563c-0.115-0.088-0.206-0.198-0.264-0.335c0.094-1.749,0.744-3.471,1.954-4.88
					c0.149-0.097,0.313-0.156,0.488-0.177c0.106,0.021,0.216,0.053,0.322,0.097l4.808,4.805c0.035,0.09,0.068,0.182,0.087,0.277
					c-0.012,0.041-0.027,0.085-0.042,0.126c-0.086,0.07-0.178,0.132-0.277,0.18h-6.898
					C44.233,120.631,44.174,120.599,44.117,120.563z"/>
				<path style="fill:#4C4C49;" d="M46.449,127.621c-0.145,0.021-0.285,0.011-0.424-0.045c-1.194-1.279-1.979-2.945-2.154-4.795
					c0.035-0.174,0.104-0.332,0.215-0.472c0.088-0.063,0.186-0.12,0.293-0.169l6.795-0.117c0.09,0.034,0.178,0.078,0.262,0.129
					c0.019,0.039,0.042,0.079,0.059,0.118c-0.007,0.11-0.028,0.221-0.063,0.325l-4.791,4.961
					C46.577,127.584,46.516,127.604,46.449,127.621z"/>
				<path style="fill:#4C4C49;" d="M53.043,130.648c-0.091,0.114-0.201,0.205-0.339,0.258c-1.747-0.116-3.459-0.793-4.852-2.021
					c-0.094-0.15-0.152-0.315-0.169-0.492c0.023-0.105,0.055-0.216,0.098-0.321l4.875-4.737c0.092-0.037,0.184-0.065,0.277-0.084
					c0.043,0.014,0.086,0.028,0.128,0.045c0.067,0.086,0.126,0.179,0.177,0.279l-0.098,6.897
					C53.111,130.533,53.078,130.592,53.043,130.648z"/>
				<path style="fill:#4C4C49;" d="M59.949,113.851c0.018-0.145,0.005-0.285-0.053-0.425c-1.301-1.171-2.98-1.927-4.832-2.069
					c-0.172,0.039-0.332,0.111-0.469,0.222c-0.061,0.091-0.115,0.188-0.162,0.295v6.797c0.035,0.091,0.081,0.176,0.135,0.26
					c0.037,0.018,0.078,0.039,0.119,0.059c0.109-0.012,0.219-0.034,0.326-0.068l4.875-4.879
					C59.913,113.979,59.935,113.915,59.949,113.851z"/>
				<path style="fill:#4C4C49;" d="M63.521,120.563c0.117-0.088,0.208-0.198,0.264-0.335c-0.091-1.749-0.744-3.471-1.953-4.88
					c-0.147-0.097-0.311-0.156-0.485-0.177c-0.11,0.021-0.216,0.053-0.327,0.097l-4.805,4.805c-0.038,0.09-0.066,0.182-0.086,0.277
					c0.011,0.041,0.024,0.085,0.04,0.126c0.085,0.07,0.18,0.132,0.278,0.18h6.897C63.406,120.631,63.468,120.599,63.521,120.563z"/>
				<path style="fill:#4C4C49;" d="M61.19,127.621c0.146,0.021,0.289,0.011,0.427-0.045c1.193-1.279,1.98-2.945,2.151-4.795
					c-0.035-0.174-0.104-0.332-0.213-0.472c-0.088-0.063-0.188-0.12-0.293-0.169l-6.794-0.117c-0.093,0.034-0.178,0.078-0.263,0.129
					c-0.02,0.039-0.041,0.079-0.061,0.118c0.009,0.11,0.029,0.221,0.063,0.325l4.794,4.961
					C61.065,127.584,61.127,127.604,61.19,127.621z"/>
				<path style="fill:#4C4C49;" d="M54.596,130.648c0.092,0.114,0.201,0.205,0.342,0.258c1.746-0.116,3.46-0.793,4.851-2.021
					c0.095-0.15,0.151-0.315,0.171-0.492c-0.024-0.105-0.055-0.216-0.102-0.321l-4.873-4.737c-0.09-0.037-0.184-0.065-0.278-0.084
					c-0.044,0.014-0.085,0.028-0.126,0.045c-0.07,0.086-0.129,0.179-0.178,0.279l0.1,6.897
					C54.528,130.533,54.561,130.592,54.596,130.648z"/>
				<polygon style="fill:#4C4C49;" points="53.804,121.242 53.804,121.242 53.804,121.242 				"/>
				<polygon style="fill:#4C4C49;" points="53.804,121.242 53.804,121.242 53.804,121.242 				"/>
			</g>
			<path style="fill:#D5D3CB;" d="M50.231,121.131c0,1.982,1.606,3.592,3.591,3.592c1.98,0,3.589-1.609,3.589-3.592
				c0-1.981-1.608-3.589-3.589-3.589C51.837,117.542,50.231,119.149,50.231,121.131z"/>
			<path style="fill:#4C4C49;" d="M51.494,119.366c0,0.246,0.201,0.446,0.448,0.446c0.247,0,0.446-0.2,0.446-0.446
				c0-0.248-0.199-0.446-0.446-0.446C51.695,118.92,51.494,119.118,51.494,119.366z"/>
			<path style="fill:#4C4C49;" d="M53.358,118.728c0,0.247,0.199,0.446,0.445,0.446c0.245,0,0.446-0.199,0.446-0.446
				s-0.201-0.446-0.446-0.446C53.558,118.281,53.358,118.48,53.358,118.728z"/>
			<path style="fill:#4C4C49;" d="M55.251,119.436c0,0.246,0.2,0.445,0.448,0.445c0.244,0,0.445-0.199,0.445-0.445
				c0-0.247-0.201-0.447-0.445-0.447C55.451,118.988,55.251,119.188,55.251,119.436z"/>
			<path style="fill:#4C4C49;" d="M51.494,123.273c0-0.246,0.201-0.447,0.448-0.447c0.247,0,0.446,0.201,0.446,0.447
				c0,0.247-0.199,0.447-0.446,0.447C51.695,123.721,51.494,123.521,51.494,123.273z"/>
			<path style="fill:#4C4C49;" d="M50.619,121.407c0-0.247,0.2-0.446,0.448-0.446c0.246,0,0.445,0.199,0.445,0.446
				c0,0.247-0.199,0.446-0.445,0.446C50.819,121.854,50.619,121.654,50.619,121.407z"/>
			<path style="fill:#4C4C49;" d="M56.129,121.407c0-0.247,0.199-0.446,0.444-0.446c0.248,0,0.448,0.199,0.448,0.446
				c0,0.247-0.2,0.446-0.448,0.446C56.328,121.854,56.129,121.654,56.129,121.407z"/>
			<path style="fill:#4C4C49;" d="M53.358,123.912c0-0.249,0.199-0.446,0.445-0.446c0.245,0,0.446,0.197,0.446,0.446
				c0,0.246-0.201,0.446-0.446,0.446C53.558,124.358,53.358,124.158,53.358,123.912z"/>
			<path style="fill:#4C4C49;" d="M55.251,123.204c0-0.245,0.2-0.446,0.448-0.446c0.244,0,0.445,0.201,0.445,0.446
				c0,0.248-0.201,0.448-0.445,0.448C55.451,123.652,55.251,123.452,55.251,123.204z"/>
		</g>
	</g>
	<path d="M42.472,69.803l132.114,7.793c0,0,8.882,1.064,5.922-4.958c-2.961-6.021-27.386-48.883-39.598-51.362
		c-12.213-2.48-58.471-9.918-78.455-8.857c0,0-11.699-0.435-16.767,8.461c0,0-10.988,23.419-13.579,30.151
		C29.519,57.76,29.889,68.388,42.472,69.803z"/>
	<path style="fill:#00384B;" d="M176.16,70.541c-2.818-5.537-26.064-44.953-37.688-47.234c-9.244-1.813-38.97-6.508-60.324-7.863
		c-1.094,11.204-5.446,47.205-6.116,54.044l98.492,5.613C170.524,75.101,178.977,76.078,176.16,70.541z"/>
	<path style="fill:#00384B;" d="M176.16,70.541c-2.818-5.537-26.064-44.953-37.688-47.234c-9.244-1.813-38.97-6.508-60.324-7.863
		c-1.094,11.204-5.446,47.205-6.116,54.044l98.492,5.613C170.524,75.101,178.977,76.078,176.16,70.541z"/>
	<path style="fill:#00384B;" d="M69.631,15.082c-2.123-0.032-4.081-0.009-5.826,0.081c0,0-11.135-0.401-15.958,7.78
		c0,0-10.458,21.537-12.923,27.727c-2.467,6.19-2.113,15.961,9.861,17.265l12.574,0.717C58.603,62.346,66.903,26.661,69.631,15.082z
		"/>
	<path style="fill:#00384B;" d="M69.631,15.082c-2.123-0.032-4.081-0.009-5.826,0.081c0,0-11.135-0.401-15.958,7.78
		c0,0-10.458,21.537-12.923,27.727c-2.467,6.19-2.113,15.961,9.861,17.265l12.574,0.717C58.603,62.346,66.903,26.661,69.631,15.082z
		"/>
	<path style="opacity:0.7;fill:#00384B;" d="M103.166,39.039c18.429,2.987,36.68,8.276,53.184,17.136
		c6.602,3.545,12.854,7.647,18.674,12.272c-5.533-9.85-25.91-43.053-36.551-45.141c-9.244-1.813-38.97-6.508-60.324-7.863
		c-0.418,4.291-1.315,12.221-2.301,20.757C84.996,36.662,94.131,37.573,103.166,39.039z"/>
	<path style="opacity:0.7;fill:#00384B;" d="M46.88,35.887c5.966,0.238,11.935-0.051,17.903-0.02
		c1.959-8.456,3.809-16.371,4.848-20.785c-2.123-0.032-4.081-0.009-5.826,0.081c0,0-11.135-0.401-15.958,7.78
		c0,0-2.943,6.063-6.075,12.678C43.474,35.723,45.176,35.818,46.88,35.887z"/>
	<path style="fill:#00384B;" d="M197.416,78.026c1.188,0.232,2.354,0.419,3.384,0.504c0,0-29.332-43.59-44.718-55.974
		c0,0-1.438,3.689,3.816,10.069c3.273,3.973,6.088,8.386,8.975,12.64c4.096,6.035,8.102,12.131,12.169,18.185
		c2.027,3.017,3.63,6.392,6.318,8.906C190.184,74.996,193.832,76.693,197.416,78.026z"/>
	<path d="M196.438,72.187c-2.922,0.155-5.996-0.194-8.61-1.347c-1.528-0.675-2.785-1.675-3.919-2.82
		c1.002,1.561,2.087,3.061,3.452,4.337c2.823,2.64,6.472,4.337,10.056,5.67c1.188,0.232,2.354,0.419,3.384,0.504
		C200.8,78.53,199.152,76.083,196.438,72.187z"/>
	<path style="fill:#00384B;" d="M36.443,13.051c0,0-18.95,27.58-21.577,39.588c0,0-2.438,14.447-0.751,13.696
		c0,0,1.689,0.563,3.378,0c1.688-0.563,21.952-45.967,21.952-45.967S42.26,12.426,36.443,13.051z"/>
	<g>
		<path d="M36.443,13.051c0,0-0.25,0.363-0.678,0.998c3.628,0.711,1.474,6.789,1.474,6.789S18.343,63.182,16.768,63.705
			c-1.575,0.526-3.149,0-3.149,0c-0.03,0.014-0.057,0.012-0.084,0.016c-0.058,1.7,0.077,2.839,0.581,2.614c0,0,1.689,0.563,3.378,0
			c1.688-0.563,21.952-45.967,21.952-45.967S42.26,12.426,36.443,13.051z"/>
	</g>
	<g>
		<path d="M177.723,69.713l5.565,2.502c0,0,2.877,1.501,1.673,3.4c0,0-0.076,0.618-2.174,0.665c-2.096,0.047-7.441-2.69-7.441-2.69
			L177.723,69.713z"/>
		<g>
			<g>
				<path style="fill:#363636;" d="M169.852,67.011c1.013-2.825,6.17-2.428,6.179-2.428c2.208,0.163,3.878,2.396,5.13,4.771
					c1.445,2.737,0.37,8.332-2.345,7.812c-3.112-0.597-1.924-0.153-6.96-1.63C170.539,75.15,168.615,70.453,169.852,67.011z"/>
			</g>
			<g>
				<path style="fill:#1C1C1B;" d="M169.852,67.011c0.091-0.258,0.22-0.489,0.375-0.695c-0.053,1.323,0.238,2.642,1.154,3.672
					c1.145,1.284,2.815,1.953,4.439,2.403c0.977,0.272,1.936,0.615,2.932,0.813c0.795,0.16,1.873,0.371,2.615-0.085
					c0.165-0.104,0.308-0.222,0.427-0.351c-0.104,2.41-1.182,4.744-2.979,4.397c-3.112-0.597-1.924-0.153-6.96-1.63
					C170.539,75.15,168.615,70.453,169.852,67.011z"/>
			</g>
		</g>
	</g>
	<path style="fill:#ADAFB2;" d="M214.121,95.604c0,0,0.563-7.13-4.128-10.132c-4.69-3.002-18.199-7.317-14.822-1.126
		c3.377,6.191,11.632,16.886,15.01,16.886C213.558,101.232,214.309,99.169,214.121,95.604z"/>
	<path style="fill:#D5D3CB;" d="M213.622,95.1c0,0,0.521-6.463-3.823-9.185c-4.345-2.72-16.857-6.632-13.729-1.021
		c3.128,5.613,10.775,15.307,13.903,15.307C213.101,100.201,213.795,98.33,213.622,95.1z"/>
	<path style="fill:#D5D3CB;" d="M213.622,95.1c0,0,0.521-6.463-3.823-9.185c-4.345-2.72-16.857-6.632-13.729-1.021
		c3.128,5.613,10.775,15.307,13.903,15.307C213.101,100.201,213.795,98.33,213.622,95.1z"/>
	<path style="fill:#B3B2AC;" d="M210.501,93.263c0,0,0.413-5.12-3.03-7.277c-3.441-2.155-13.356-5.255-10.878-0.808
		c2.478,4.447,8.538,12.127,11.017,12.127C210.088,97.305,210.638,95.823,210.501,93.263z"/>
	<path style="opacity:0.6;fill:#ADAFB2;" d="M53.704,89.318c0,0-16.323-0.094-24.327,15.292c0,0-6.004,10.256-0.125,22.765
		C29.252,127.375,19.557,97.699,53.704,89.318z"/>
	<path style="opacity:0.6;fill:#ADAFB2;" d="M177.534,89.318c0,0-16.323-0.094-24.327,15.292c0,0-6.004,10.256-0.125,22.765
		C153.082,127.375,143.387,97.699,177.534,89.318z"/>
	<path style="fill:#222222;" d="M210.369,115.617l-5.129,12.509c0,0-0.626,0.625,0.75,1h3.878c0,0,1.501-0.499,3.002-2.501
		c1.501-2.002,6.755-8.631,7.13-10.507c0.375-1.876-0.25-6.505-0.25-6.505s-0.25-1.125-2.502-1.125c-2.252,0-3.189,0-3.189,0
		s-1.813,0.625-2.188,2.127C211.494,112.115,210.369,115.617,210.369,115.617z"/>
	<path style="fill:#12576F;" d="M158.396,26.372c0,0-0.563,1.688,3.378,6.566c3.94,4.878,14.071,19.888,19.513,28.706
		c5.441,8.818,8.067,8.068,10.882,8.631c0,0,1.688,0.188,0-2.252C190.48,65.585,164.964,30.5,158.396,26.372z"/>
	<path style="fill:#676565;" d="M214.496,108.973c0,0-1.642,0.422-1.924,1.5c-0.281,1.079-1.547,5.488-1.547,5.488
		s-0.188,0.751,1.172,0.845c1.36,0.094,5.394,0.047,5.394,0.047s1.876,0.188,1.876-1.267s-0.094-5.16-0.094-5.16s0-1.5-1.313-1.547
		L214.496,108.973z"/>
	<path style="fill:#ADAFB2;" d="M32.629,86.23h-2.964c-2.461,0-4.464-2.002-4.464-4.463v-2.965c0-2.461,2.003-4.463,4.464-4.463
		h2.964c2.461,0,4.463,2.002,4.463,4.463v2.965C37.092,84.229,35.09,86.23,32.629,86.23z M29.665,75.09
		c-2.047,0-3.713,1.666-3.713,3.713v2.965c0,2.047,1.666,3.713,3.713,3.713h2.964c2.047,0,3.713-1.666,3.713-3.713v-2.965
		c0-2.047-1.666-3.713-3.713-3.713H29.665z"/>
	<path style="fill:#12576F;" d="M35.818,14.927c0,0-15.761,24.828-19.013,33.834c0,0-0.876,1.688-1.501,4.315
		c-0.625,2.627-1.251,9.944-1.251,9.944s1.126-7.566,2.502-10.632c1.376-3.064,19.825-35.148,19.825-35.148s0.813-1.001,0.438-1.626
		C36.443,14.989,35.818,14.927,35.818,14.927z"/>
	<g>
		<path style="fill:#95979A;" d="M177.964,104.267c8.318,0,15.362,5.458,17.751,12.985c-1.775-8.434-9.259-14.768-18.22-14.768
			c-10.284,0-18.622,8.338-18.622,18.621c0,1.966,0.307,3.859,0.871,5.638c-0.262-1.245-0.402-2.533-0.402-3.855
			C159.342,112.605,167.68,104.267,177.964,104.267z"/>
	</g>
	<path style="opacity:0.9;fill:#FFFFFF;" d="M197.735,83.096c0,0-2.377,0.251-0.313,3.314c2.064,3.064,8.256,10.633,10.508,11.946
		c0,0-10.132-12.321-6.881-13.697c0,0,0.627-0.438,2.565,0.125c1.939,0.563,6.066,1.751,6.691,2.814c0,0-0.999-1.751-3.689-2.939
		C203.926,83.471,199.111,82.783,197.735,83.096z"/>
	<g>
		<path style="fill:#5D1707;" d="M11.674,113.022l4.818-0.284c0,0,1.322-0.096,1.795,0.756l1.603,3.258c0,0,0.146,0.518-0.659,0.518
			c-0.803,0-4.769,0-4.769,0s-1.467,0.049-2.034-0.376c-0.566-0.425-1.459-3.306-1.459-3.306S10.701,112.994,11.674,113.022z"/>
		<path style="fill:#E3301F;" d="M11.988,113.502l2.816-0.166c0,0,0.773-0.055,1.049,0.441l0.937,1.904c0,0,0.085,0.305-0.383,0.305
			c-0.47,0-2.789,0-2.789,0s-0.714,0.04-1.044-0.209c-0.333-0.248-0.998-1.944-0.998-1.944S11.472,113.422,11.988,113.502z"/>
	</g>
	<g>
		<path style="fill:#8E310E;" d="M12.553,70.088l-0.876,13.133c0,0,0.094,1.313,3.096,0.563c3.002-0.751,3.784-1.876,4.534-6.004
			c0.751-4.128,0.938-6.004,0.938-6.004s0.375-3.565-1.782-3.753c-2.158-0.188-4.315-0.094-4.315-0.094S12.647,68.117,12.553,70.088
			z"/>
		<path style="fill:#DC4E14;" d="M12.477,70.601l-0.8,11.986c0,0,0.086,1.198,2.825,0.515c2.74-0.686,3.453-1.713,4.139-5.48
			c0.685-3.768,0.857-5.479,0.857-5.479s0.342-3.254-1.628-3.426c-1.968-0.171-3.938-0.086-3.938-0.086S12.563,68.803,12.477,70.601
			z"/>
		<path style="fill:#DC4E14;" d="M14.965,69.149c0,0-1.758,0.001-2.002,1.151c-0.243,1.151-0.91,12.482-0.91,12.482l1.881-10.906
			c0,0,0.121-1.091,2.307-1.334c0,0,1.885-0.479,2.129-1.268L14.965,69.149z"/>
	</g>
	<path style="opacity:0.8;fill:#E8E6D6;" d="M52.537,8.734c37.523-1.398,92.258,6.943,92.258,6.943
		c-4.223-2.252-39.307-7.036-60.603-8.256c-21.295-1.22-37.712,0.281-37.712,0.281c-5.811,0.646-8.352,4.639-8.435,4.773
		C42.443,9.619,47.432,8.803,52.537,8.734z"/>
	<path style="opacity:0.3;fill:#E8E6D6;" d="M29.501,57.83c0,0-1.001,12.007,14.634,13.133l131.586,7.13L65.398,74.215L20.995,74.09
		c0,0,1.251-6.004-1.251-7.379l22.39-49.033c0,0,0.501-1.876,2.377-1.75c0,0,1.626-0.25,0.876,1.626
		c-0.751,1.876-15.01,35.147-15.01,35.147S29.125,56.079,29.501,57.83z"/>
	<g>
		<path style="fill:#8E9093;" d="M82.623,74.783l-6.875-0.313c0,0-1.359-0.024-0.863,1.165c0.493,1.19,0.637,1.404,0.637,1.404
			s0.135,0.614,1.457,0.878c1.318,0.262,9.27,0.962,9.27,0.962s1.117,0.168,2.885-0.637c1.764-0.803,1.744-2.31,1.168-2.693
			c0,0,0.019-0.157-1.11-0.389C88.06,74.936,82.623,74.783,82.623,74.783z"/>
		<path style="opacity:0.6;fill:#FFFFFF;" d="M88.443,75.347l-11.568-0.609c0,0-1.727-0.055-1.494,0.503
			c0.275,0.664,0.443,1.125,2.201,1.314c1.759,0.19,8.477,0.771,8.477,0.771s2.518,0.241,3.375-0.421
			C90.294,76.242,89.896,75.485,88.443,75.347z"/>
	</g>
	<path style="fill:#BABAAE;" d="M138.953,123.567c-0.179,0-0.283-0.009-0.291-0.009L89.54,123.56
		c-1.374-0.104-2.433-0.632-3.179-1.568c-1.623-2.043-1.154-5.292-1.133-5.43c1.866-15.491-9.344-23.911-12.683-24.913
		c-4.044-1.213-3.268-4.726-3.259-4.761l2.434-14.423c0.035-0.205,0.235-0.344,0.433-0.309c0.204,0.035,0.343,0.229,0.308,0.433
		l-2.439,14.447c-0.03,0.138-0.615,2.887,2.74,3.894c3.472,1.041,15.136,9.754,13.211,25.732c-0.006,0.042-0.442,3.08,0.979,4.864
		c0.609,0.766,1.49,1.197,2.617,1.284l49.129-0.001c0.262,0.021,5.703,0.433,6.758-6.25c0.102-0.639,0.193-1.364,0.296-2.161
		c1.061-8.304,3.034-23.76,23.995-29.288c0.146-0.021,9.803-1.282,10.735-5.719c0.042-0.204,0.243-0.333,0.444-0.29
		c0.203,0.043,0.332,0.242,0.29,0.444c-1.043,4.958-10.907,6.247-11.327,6.3c-20.423,5.39-22.355,20.518-23.393,28.647
		c-0.104,0.805-0.197,1.538-0.299,2.184C145.175,123.148,140.215,123.567,138.953,123.567z"/>
	<path style="fill:#E8E6D6;" d="M32.19,75.404h-2.689c0,0-2.938,0.625-3.064,3.189v2.815c0,0,0.563-3.878,2.313-4.503
		C30.502,76.28,32.19,75.404,32.19,75.404z"/>
	<polygon style="fill:#252727;" points="71.341,15.114 60.083,68.587 69.84,69.149 75.656,15.678 	"/>
	<g>
		<path style="fill:#E86408;" d="M189.583,81.658l-8.12-0.368c0,0,0.12,0.882,0.957,1.637c0.833,0.756,4.809,0.567,4.809,0.567
			s1.791,0.094,2.354-0.473C190.147,82.455,190.244,81.688,189.583,81.658z"/>
		<path style="opacity:0.5;fill:#E86408;" d="M189.419,82l-5.398-0.246c0,0,0.077,0.59,0.635,1.09
			c0.556,0.502,3.198,0.377,3.198,0.377s1.19,0.063,1.565-0.313C189.793,82.529,189.857,82.02,189.419,82z"/>
	</g>
</g>
</svg>
